<?xml version="1.0" encoding="UTF-8" standalone="no"?>
<!-- Created with Inkscape (http://www.inkscape.org/) -->

<svg
   version="1.1"
   id="svg174"
   width="456"
   height="178"
   viewBox="0 0 456 178"
   sodipodi:docname="mucc_logo.svg"
   inkscape:version="1.2 (dc2aedaf03, 2022-05-15)"
   xmlns:inkscape="http://www.inkscape.org/namespaces/inkscape"
   xmlns:sodipodi="http://sodipodi.sourceforge.net/DTD/sodipodi-0.dtd"
   xmlns="http://www.w3.org/2000/svg"
   xmlns:svg="http://www.w3.org/2000/svg">
  <defs
     id="defs178" />
  <sodipodi:namedview
     id="namedview176"
     pagecolor="#ffffff"
     bordercolor="#000000"
     borderopacity="0.25"
     inkscape:showpageshadow="2"
     inkscape:pageopacity="0.0"
     inkscape:pagecheckerboard="0"
     inkscape:deskcolor="#d1d1d1"
     showgrid="false"
     inkscape:zoom="2.6888889"
     inkscape:cx="230.57851"
     inkscape:cy="88.884298"
     inkscape:window-width="1920"
     inkscape:window-height="1017"
     inkscape:window-x="-8"
     inkscape:window-y="-8"
     inkscape:window-maximized="1"
     inkscape:current-layer="g180" />
  <g
     inkscape:groupmode="layer"
     inkscape:label="Image"
     id="g180">
    <path
       style="fill:#000000"
       d="M 248.85183,146.5 V 135 h 7 7 v 3.4349 c 0,1.8892 0.43886,4.5892 0.97525,6 0.86828,2.28375 1.52639,2.5651 6,2.5651 h 5.02475 v 5.5 5.5 h -13 -13 z m 132,6 V 147 h 5.39301 c 6.11161,0 6.60699,-0.56847 6.60699,-7.58179 V 135 h 7 7 v 11.5 11.5 h -13 -13 z m -187.5931,-17.84503 c -9.66786,-2.46373 -16.55395,-8.47833 -21.30579,-18.60934 L 169.35183,110.5 V 78 45.5 l 4.75,-0.304791 4.75,-0.304791 v 29.87329 c 0,34.765212 0.496,37.788802 7.31622,44.598992 10.92807,10.912 29.61825,8.02503 36.9628,-5.70943 2.14257,-4.00664 2.23163,-5.2937 2.52255,-36.455955 l 0.30157,-32.302685 4.69843,0.302685 4.69843,0.302685 0.29784,28.5 c 0.32513,31.111 -0.31698,37.43915 -4.60215,45.35541 -6.85372,12.66131 -22.80269,19.11858 -37.78879,15.29956 z M 50.108737,132.25 C 50.378332,131.2875 54.511141,116.325 59.292756,99 73.290771,48.281663 73.750974,46.700854 74.833019,45.618809 75.543812,44.908016 76.292285,45.04031 77.232146,46.042857 77.983463,46.844286 84.105404,61.225 90.836458,78 c 6.731052,16.775 12.606482,31.175 13.056512,32 0.63732,1.16837 1.06557,0.83673 1.93697,-1.5 3.19991,-8.580753 25.49117,-62.136882 26.20418,-62.957143 0.51531,-0.592825 1.34333,-0.40251 2.17539,0.5 1.20486,1.306883 24.64232,83.813463 24.64232,86.748043 0,0.78019 -1.73004,1.2091 -4.87693,1.2091 h -4.87693 l -1.48727,-5.75 C 144.9647,118.02012 132.75916,73.546253 132.17329,72 c -0.70553,-1.862061 -1.07583,-1.012311 -14.92385,34.24732 -8.55241,21.77599 -11.27883,27.74789 -12.66905,27.75 -0.97429,0.001 -2.19523,-1.00982 -2.7132,-2.24732 -0.51797,-1.2375 -6.15763,-15.5118 -12.53257,-31.72067 C 82.959681,83.820461 77.602451,70.417289 77.429665,70.244503 77.256879,70.071718 76.443478,72.533519 75.622108,75.715174 74.800737,78.896828 71.403269,91.4 68.072179,103.5 c -3.33109,12.1 -6.560733,23.9125 -7.176983,26.25 L 59.77474,134 h -5.078087 c -4.35634,0 -5.00842,-0.24873 -4.587916,-1.75 z m 244.767333,0.14691 c -18.60464,-4.99952 -31.02424,-21.72322 -31.02424,-41.775906 0,-17.486818 8.57425,-32.750643 22.35602,-39.798028 5.34001,-2.730644 15.76798,-4.784953 24.39398,-4.805612 L 317.85183,46 v 4.389376 4.389376 l -10.75,0.409923 c -12.32884,0.470127 -16.75275,2.153771 -24.08419,9.165903 -6.27058,5.997488 -9.26356,12.476607 -10.06352,21.785271 -0.80285,9.342277 0.44663,15.619991 4.57236,22.972781 C 283.49305,119.74612 293.96394,125 309.18972,125 h 8.66211 v 4.5 4.5 l -8.75,-0.0658 c -4.8125,-0.0362 -11.21409,-0.72797 -14.22576,-1.53728 z m 61,0 c -7.04248,-1.89249 -12.52689,-5.14118 -18.31879,-10.85114 -9.42493,-9.2916 -13.30952,-20.07693 -12.44249,-34.54577 0.85261,-14.22822 6.72512,-25.300969 17.51712,-33.028956 7.22456,-5.173393 13.3391,-6.983302 25.96992,-7.687118 l 10.25,-0.571152 V 50.356387 55 h -8.96249 c -11.49523,0 -18.05813,2.338264 -25.40237,9.050488 C 336.50429,71.346204 334.36008,76.838121 334.35549,90 c -0.003,8.753395 0.36711,11.30336 2.22528,15.3295 3.66796,7.94749 7.80086,12.31369 15.01955,15.86745 5.92242,2.91559 7.74375,3.30777 16.94361,3.64832 l 10.3079,0.38157 V 129.61342 134 l -8.75,-0.0658 c -4.8125,-0.0362 -11.21409,-0.72797 -14.22576,-1.53728 z M 248.85183,32.5 V 21 h 13 13 v 6 6 h -5.5 -5.5 v 5.5 5.5 h -7.5 -7.5 z m 142.80226,6.25 -0.30226,-5.25 -5.75,-0.299904 -5.75,-0.299904 V 27.450096 22 h 13 13 v 11 11 h -6.94774 -6.94774 z"
       id="path184" />
    <path
       style="fill:none;stroke-width:0.371901"
       d="M 249.17355,32.355372 V 21.012397 h 12.83058 12.83058 v 5.950413 5.950413 h -5.57851 -5.57851 v 5.392562 5.392562 h -7.25207 -7.25207 z"
       id="path933" />
    <path
       style="fill:#d1005d;stroke-width:0.371901;fill-opacity:1"
       d="M 249.17355,32.355372 V 21.012397 h 12.83058 12.83058 v 5.950413 5.950413 h -5.57851 -5.57851 v 5.392562 5.392562 h -7.25207 -7.25207 z"
       id="path935" />
    <path
       style="fill:#d1005d;fill-opacity:1;stroke-width:0.371901"
       d="M 249.17355,32.355372 V 21.012397 h 12.83058 12.83058 v 5.950413 5.950413 h -5.57851 -5.57851 v 5.392562 5.392562 h -7.25207 -7.25207 z"
       id="path2527" />
    <path
       style="fill:#d1005d;fill-opacity:1;stroke-width:0.371901"
       d="M 391.81331,38.545162 391.5478,33.391977 388.17545,33.1526 c -1.8548,-0.131657 -4.43446,-0.239377 -5.73258,-0.239377 h -2.36023 v -5.392562 -5.392562 h 12.83058 12.83058 v 10.785124 10.785124 h -6.83249 -6.8325 z"
       id="path2529" />
    <path
       style="fill:#d1005d;fill-opacity:1;stroke-width:0.371901"
       d="m 381.19835,152.47934 v -5.39256 h 4.44531 c 6.86767,0 7.13076,-0.25515 7.38181,-7.15909 l 0.17243,-4.74174 h 6.64485 6.64485 v 11.34298 11.34297 h -12.64462 -12.64463 z"
       id="path2531" />
    <path
       style="fill:#d1005d;fill-opacity:1;stroke-width:0.371901"
       d="m 249.17355,146.52893 v -11.34298 h 6.63813 6.63812 l 0.22879,3.48306 c 0.28563,4.34825 1.21069,7.30245 2.4867,7.9413 0.58408,0.29244 2.55439,0.46754 5.29959,0.47098 l 4.36983,0.005 v 5.39256 5.39256 h -12.83058 -12.83058 z"
       id="path2533" />
    <path
       style="fill:#d1005d;fill-opacity:1;stroke-width:0.371901"
       d="m 300.38944,133.1323 c -9.78257,-1.1837 -18.04165,-5.44622 -24.99688,-12.90091 -7.81424,-8.3754 -11.81133,-19.66972 -11.22542,-31.718993 0.59332,-12.201772 4.88487,-22.586032 12.52707,-30.311752 8.01551,-8.1031 17.28468,-11.379179 33.3781,-11.797093 l 7.531,-0.195565 v 4.091254 4.091255 l -1.16219,0.232438 c -0.63921,0.127841 -2.68931,0.232844 -4.55579,0.233341 -5.47906,0.0015 -12.91446,0.687777 -15.99966,1.476837 -3.93591,1.006637 -7.27447,2.853981 -11.04794,6.113219 -5.12109,4.423206 -8.35787,8.958218 -10.13406,14.1987 -1.53206,4.520219 -1.91475,7.383975 -1.90887,14.284721 0.005,5.667133 0.11588,6.89191 0.85929,9.476718 1.82746,6.354 4.98824,11.78042 9.22687,15.84067 6.57323,6.2966 14.82827,8.89069 28.30706,8.89529 l 6.41529,0.002 v 4.27686 4.27686 l -6.60124,-0.0403 c -3.63069,-0.0222 -8.40637,-0.25875 -10.61263,-0.52571 z"
       id="path2535" />
    <path
       style="fill:#d1005d;fill-opacity:1;stroke-width:0.371901"
       d="m 361.30165,133.11894 c -8.89382,-1.08625 -16.02428,-4.57492 -22.90213,-11.20519 -9.26033,-8.92698 -13.10513,-18.13671 -13.09021,-31.355899 0.0115,-10.22572 2.15045,-18.118537 6.86545,-25.334349 3.69007,-5.647249 8.99373,-10.533969 14.83764,-13.671189 6.70201,-3.597881 11.19716,-4.487216 27.58471,-5.45744 l 3.99793,-0.236697 v 4.451213 4.451213 l -8.46074,0.198537 c -9.09196,0.213349 -12.20977,0.70932 -16.56394,2.634944 -6.62934,2.931805 -14.56033,10.611081 -16.99233,16.453011 -1.86825,4.487734 -2.32907,8.382681 -2.14998,18.172198 0.17143,9.370918 0.26548,9.863538 2.8784,15.075758 2.87189,5.72881 7.03741,10.14105 12.3279,13.05803 6.59672,3.63719 9.20394,4.27237 18.91937,4.60921 3.375,0.11701 7.01498,0.30162 8.08884,0.41025 l 1.95248,0.19751 v 4.06415 4.06415 l -6.60124,-0.0399 c -3.63068,-0.0219 -8.44215,-0.26472 -10.69215,-0.53952 z"
       id="path2537" />
  </g>
</svg>
